<?xml version="1.0" encoding="utf-8"?>
<!-- Generator: Adobe Illustrator 16.0.0, SVG Export Plug-In . SVG Version: 6.00 Build 0)  -->
<!DOCTYPE svg PUBLIC "-//W3C//DTD SVG 1.1//EN" "http://www.w3.org/Graphics/SVG/1.1/DTD/svg11.dtd">
<svg version="1.1" xmlns="http://www.w3.org/2000/svg" xmlns:xlink="http://www.w3.org/1999/xlink" x="0px" y="0px" width="36px"
	 height="36px" viewBox="0 0 36 36" enable-background="new 0 0 36 36" xml:space="preserve">
<g id="Capa_1" display="none">
	<g display="inline">
		<path fill="#991915" d="M29.712,19.452c-0.084-0.042-0.169-0.063-0.253-0.063c-0.183,0-0.344,0.069-0.483,0.211l-1.348,1.346
			c-0.126,0.127-0.188,0.281-0.188,0.463v5.346c0,0.927-0.33,1.719-0.989,2.378c-0.66,0.66-1.453,0.989-2.379,0.989H6.561
			c-0.926,0-1.718-0.329-2.378-0.989c-0.66-0.659-0.989-1.451-0.989-2.378V9.244c0-0.926,0.329-1.719,0.989-2.378
			c0.66-0.66,1.452-0.99,2.378-0.99h17.511c0.309,0,0.624,0.044,0.947,0.128c0.084,0.027,0.147,0.041,0.189,0.041
			c0.183,0,0.344-0.07,0.484-0.21l1.03-1.031c0.169-0.169,0.232-0.372,0.188-0.61c-0.041-0.224-0.167-0.386-0.378-0.484
			c-0.758-0.35-1.578-0.525-2.462-0.525H6.561c-1.668,0-3.096,0.592-4.282,1.778C1.093,6.147,0.5,7.575,0.5,9.245v17.51
			c0,1.67,0.593,3.098,1.778,4.284c1.186,1.185,2.614,1.777,4.282,1.777h17.511c1.671,0,3.098-0.593,4.283-1.777
			c1.186-1.187,1.778-2.614,1.778-4.284v-6.692C30.133,19.767,29.992,19.563,29.712,19.452L29.712,19.452z M29.712,19.452"/>
		<path fill="#991915" d="M34.994,7.371L32.68,5.057c-0.337-0.337-0.738-0.506-1.2-0.506c-0.464,0-0.863,0.169-1.2,0.506
			L16.663,18.673l-5.535-5.535c-0.337-0.337-0.737-0.505-1.2-0.505s-0.863,0.168-1.2,0.505l-2.314,2.316
			c-0.336,0.336-0.505,0.735-0.505,1.199c0,0.463,0.169,0.862,0.505,1.199l9.049,9.05c0.338,0.337,0.738,0.505,1.201,0.505
			s0.863-0.168,1.199-0.505L34.994,9.771C35.331,9.435,35.5,9.035,35.5,8.572S35.331,7.707,34.994,7.371L34.994,7.371z
			 M34.994,7.371"/>
	</g>
</g>
<g id="Capa_2" display="none">
	<g display="inline">
		<path fill="#991915" d="M12.195,28.891h-6.51c-1.245,0-2.274-0.98-2.274-2.222V6.485c0-1.244,1.029-2.214,2.274-2.214h15.758
			c1.24,0,2.259,0.97,2.259,2.214v16.912l2.91-3.46V4.325c0-1.639-1.294-2.965-2.927-2.965H3.324C1.755,1.36,0.5,2.632,0.5,4.201
			v24.704c0,1.64,1.31,2.966,2.948,2.966h11.431L13.526,30.7C12.933,30.189,12.492,29.559,12.195,28.891L12.195,28.891z
			 M12.195,28.891"/>
		<path fill="#991915" d="M20.23,8.001H7.161c-0.803,0-1.45,0.652-1.45,1.456c0,0.803,0.646,1.453,1.45,1.453H20.23
			c0.803,0,1.444-0.65,1.444-1.453C21.68,8.653,21.027,8.001,20.23,8.001L20.23,8.001z M20.23,8.001"/>
		<path fill="#991915" d="M20.23,12.852H7.161c-0.803,0-1.45,0.646-1.45,1.449c0,0.803,0.646,1.455,1.45,1.455H20.23
			c0.803,0,1.444-0.652,1.444-1.455C21.68,13.503,21.027,12.852,20.23,12.852L20.23,12.852z M20.23,12.852"/>
		<path fill="#991915" d="M20.23,17.695H7.161c-0.803,0-1.45,0.62-1.45,1.423c0,0.799,0.646,1.413,1.45,1.413H20.23
			c0.803,0,1.444-0.614,1.444-1.413C21.68,18.315,21.027,17.695,20.23,17.695L20.23,17.695z M20.23,17.695"/>
		<path fill="#991915" d="M5.706,23.742c0,0.798,0.652,1.418,1.455,1.418h4.873c0.204-0.523,0.517-1.132,0.948-1.632
			c0.447-0.522,0.98-0.905,1.558-1.207H7.161C6.358,22.326,5.706,22.939,5.706,23.742L5.706,23.742z M5.706,23.742"/>
		<path fill="#991915" d="M20.23,22.326h-1.095c0.361,0.145,0.701,0.404,1.014,0.673l1.449,1.239
			c0.055-0.15,0.081-0.312,0.081-0.483C21.68,22.957,21.027,22.326,20.23,22.326L20.23,22.326z M20.23,22.326"/>
		<path fill="#991915" d="M34.604,18.434c-1.066-0.91-2.673-0.781-3.584,0.291l-8.348,9.787l-4.177-3.588
			c-1.067-0.912-2.667-0.788-3.583,0.275c-0.911,1.065-0.787,2.666,0.274,3.582l6.106,5.244c0.469,0.399,1.051,0.614,1.66,0.614
			c0.064,0,0.129,0,0.199-0.004c0.668-0.054,1.299-0.373,1.735-0.884l10.008-11.734C35.801,20.952,35.677,19.35,34.604,18.434
			L34.604,18.434z M34.604,18.434"/>
	</g>
</g>
<g id="Capa_3" display="none">
	<g display="inline">
		<path fill="#991915" d="M4.875,5.969V1.594c0-0.604,0.489-1.094,1.094-1.094s1.094,0.489,1.094,1.094v4.375
			c0,0.604-0.489,1.094-1.094,1.094S4.875,6.573,4.875,5.969L4.875,5.969z M23.469,7.063c0.604,0,1.094-0.489,1.094-1.094V1.594
			c0-0.604-0.489-1.094-1.094-1.094s-1.094,0.489-1.094,1.094v4.375C22.375,6.573,22.864,7.063,23.469,7.063L23.469,7.063z
			 M35.5,26.75c0,4.832-3.918,8.75-8.75,8.75S18,31.582,18,26.75S21.918,18,26.75,18S35.5,21.918,35.5,26.75L35.5,26.75z
			 M33.313,26.75c0-3.619-2.943-6.563-6.563-6.563s-6.563,2.943-6.563,6.563s2.943,6.563,6.563,6.563S33.313,30.369,33.313,26.75
			L33.313,26.75z M9.25,13.625H4.875V18H9.25V13.625z M4.875,24.563H9.25v-4.375H4.875V24.563z M11.438,18h4.375v-4.375h-4.375V18z
			 M11.438,24.563h4.375v-4.375h-4.375V24.563z M2.688,26.532V11.438H26.75v4.375h2.188V7.281c0-1.329-1.06-2.406-2.369-2.406
			h-0.912v1.094c0,1.205-0.98,2.188-2.188,2.188s-2.188-0.982-2.188-2.188V4.875H8.156v1.094c0,1.205-0.98,2.188-2.188,2.188
			S3.781,7.174,3.781,5.969V4.875H2.87c-1.31,0-2.37,1.077-2.37,2.406v19.251c0,1.324,1.061,2.405,2.37,2.405h12.942V26.75H2.87
			C2.771,26.75,2.688,26.647,2.688,26.532L2.688,26.532z M22.375,18v-4.375H18V18H22.375z M30.031,26.75H26.75v-3.281
			c0-0.604-0.489-1.094-1.094-1.094s-1.094,0.489-1.094,1.094v4.375c0,0.604,0.489,1.094,1.094,1.094h4.375
			c0.604,0,1.094-0.489,1.094-1.094S30.636,26.75,30.031,26.75L30.031,26.75z M30.031,26.75"/>
	</g>
</g>
<g id="Capa_4" display="none">
	<g display="inline">
		<path fill="#991915" d="M20.014,6.718H8.065c-0.877,0-1.591,0.714-1.591,1.591c0,0.882,0.713,1.595,1.591,1.595h11.949
			c0.877,0,1.59-0.713,1.59-1.595C21.604,7.432,20.891,6.718,20.014,6.718L20.014,6.718z M20.014,6.718"/>
		<path fill="#991915" d="M21.604,14.284c0-0.881-0.713-1.595-1.59-1.595H8.065c-0.877,0-1.591,0.713-1.591,1.595
			c0,0.881,0.713,1.593,1.591,1.593h11.949C20.891,15.877,21.604,15.165,21.604,14.284L21.604,14.284z M21.604,14.284"/>
		<path fill="#991915" d="M14.039,21.848c0.881,0,1.595-0.713,1.595-1.591c0-0.881-0.714-1.595-1.595-1.595H8.065
			c-0.877,0-1.591,0.714-1.591,1.595c0,0.878,0.713,1.591,1.591,1.591H14.039z M14.039,21.848"/>
		<path fill="#991915" d="M26.063,27.265l-1.67,1.104v3.964H3.686V3.664h20.707v6.294l3.186-5.519v-2.37
			c0-0.877-0.715-1.591-1.596-1.591H2.091C1.214,0.479,0.5,1.192,0.5,2.069v31.857c0,0.881,0.714,1.595,1.591,1.595h23.892
			c0.881,0,1.596-0.714,1.596-1.595v-8.777l-0.762,1.314C26.631,26.788,26.369,27.064,26.063,27.265L26.063,27.265z M26.063,27.265"
			/>
		<path fill="#991915" d="M35.48,7.854c-0.033-0.142-0.371-1.431-2.395-2.599c-2.027-1.168-3.309-0.819-3.451-0.775
			c-0.189,0.062-0.35,0.189-0.451,0.364L19.23,22.085c-0.063,0.105-0.1,0.226-0.105,0.349l-0.371,6.222
			c-0.02,0.303,0.135,0.586,0.393,0.739c0.262,0.149,0.586,0.142,0.838-0.025l5.201-3.433c0.105-0.069,0.189-0.16,0.252-0.266
			l9.957-17.246C35.492,8.255,35.525,8.051,35.48,7.854L35.48,7.854z M21.992,26.613c-0.266-0.215-0.566-0.415-0.891-0.601
			c-0.32-0.189-0.648-0.346-0.965-0.47l0.113-1.864c0.414,0.055,1.029,0.223,1.813,0.674c0.779,0.451,1.234,0.899,1.488,1.23
			L21.992,26.613z M21.992,26.613"/>
		<path fill="#991915" d="M11.603,29.209c0.055,0.32,0.423,0.419,0.67,0.521c0.236,0.102,0.524-0.091,0.721-0.186
			c1.216-0.59,2.861,0.102,4.165,0.102c0.768,0,0.768-1.193,0-1.193c-1.519,0-2.781-0.383-4.288-0.135
			c0-0.088-0.029-0.204-0.124-0.364c-0.28-0.48-0.641-0.619-0.998-0.561c-0.025-0.055-0.047-0.113-0.08-0.171
			c-0.095-0.153-0.226-0.229-0.375-0.263c0.423-0.731,0.692-1.507,0.415-2.137c-0.083-0.189-0.323-0.288-0.513-0.295
			c-0.798-0.029-1.481,0.809-1.995,1.311c-1.285,1.256-2.414,2.683-3.51,4.106c-0.47,0.608,0.569,1.201,1.031,0.601
			c0.972-1.26,1.999-2.479,3.101-3.622c-0.266,0.437-0.55,0.866-0.844,1.277c-0.427,0.659,0.589,1.216,1.029,0.604
			c0.106-0.16,0.241-0.276,0.387-0.375c-0.029,0.073-0.059,0.146-0.092,0.219c0.004,0,0.004,0.004,0.008,0.004
			c-0.025,0.047-0.048,0.095-0.065,0.138c-0.27,0.67,0.728,0.976,1.092,0.463c0.091-0.132,0.175-0.27,0.251-0.415
			C11.585,28.939,11.582,29.07,11.603,29.209L11.603,29.209z M11.603,29.209"/>
	</g>
</g>
<g id="Capa_5" display="none">
	<g display="inline">
		<path fill="#991915" d="M9.63,12.207h7.61c1.05,0,1.901-0.866,1.901-1.917S18.29,8.373,17.24,8.373H9.63
			c-1.05,0-1.902,0.866-1.902,1.917C7.728,11.34,8.58,12.207,9.63,12.207L9.63,12.207z M9.63,12.207"/>
		<path fill="#991915" d="M9.63,20.57h15.979c1.051,0,1.903-0.867,1.903-1.918s-0.853-1.917-1.903-1.917H9.63
			c-1.05,0-1.902,0.866-1.902,1.917S8.58,20.57,9.63,20.57L9.63,20.57z M9.63,20.57"/>
		<path fill="#991915" d="M26.37,24.363H9.63c-1.05,0-1.902,0.847-1.902,1.896c0,1.052,0.853,1.897,1.902,1.897h16.74
			c1.05,0,1.902-0.846,1.902-1.897C28.272,25.21,27.42,24.363,26.37,24.363L26.37,24.363z M26.37,24.363"/>
		<path fill="#991915" d="M25.964,0.5H6.671c-2.354,0-4.254,1.908-4.254,4.262v26.463c0,2.354,1.899,4.275,4.254,4.275h22.658
			c2.354,0,4.254-1.922,4.254-4.275V8.307L25.964,0.5z M29.329,32.44H6.671c-0.675,0-1.236-0.539-1.236-1.215V4.762
			c0-0.676,0.561-1.244,1.236-1.244h17.815v3.426c0,1.506,1.22,2.731,2.726,2.747l3.353,0.034v21.501
			C30.564,31.901,30.005,32.44,29.329,32.44L29.329,32.44z M29.329,32.44"/>
	</g>
</g>
<g id="Capa_6" display="none">
	<g display="inline">
		<path fill="#991915" d="M31.154,22.004c0-0.075-0.027-0.141-0.039-0.213c-0.006-0.03-0.009-0.061-0.015-0.087
			c-0.033-0.135-0.084-0.255-0.153-0.369c-0.015-0.03-0.033-0.06-0.051-0.087c-0.024-0.036-0.039-0.078-0.066-0.111l-5.497-8.658
			c-0.24-0.382-0.663-0.612-1.112-0.612h-0.01l3.074-3.075c0.516-0.519,0.516-1.353,0-1.868l-6.034-6.038
			C21.005,0.638,20.666,0.5,20.318,0.5c-0.351,0-0.687,0.138-0.936,0.387L8.697,11.573c-0.517,0.52-0.517,1.353,0,1.868l0.821,0.822
			l-4.465,7.033c-0.009,0.012-0.013,0.024-0.019,0.036c-0.044,0.078-0.081,0.159-0.11,0.246c-0.013,0.026-0.021,0.054-0.028,0.084
			c-0.021,0.081-0.035,0.162-0.042,0.246c0,0.023-0.006,0.048-0.006,0.071c-0.003,0.01-0.003,0.016-0.003,0.016v12.183
			c0,0.729,0.591,1.322,1.32,1.322h23.648c0.732,0,1.323-0.594,1.323-1.322v-12C31.146,22.121,31.154,22.063,31.154,22.004
			L31.154,22.004z M11.432,16.177l2.918,2.918h-2.303c-0.243,0-0.441,0.198-0.441,0.44c0,0.243,0.195,0.441,0.441,0.441h11.889
			c0.243,0,0.44-0.195,0.44-0.441c0-0.242-0.197-0.44-0.44-0.44h-6.952l4.586-4.586h1.925l3.917,6.176H8.571L11.432,16.177z
			 M28.494,32.857H7.488v-9.531h21.006V32.857z M28.494,32.857"/>
	</g>
</g>
<g id="Capa_7">
	<g>
		<g>
			<path fill="#991915" d="M18.031,10.438c2.243,0,4.059-1.814,4.059-4.058s-1.815-4.058-4.059-4.058
				c-2.242,0-4.058,1.814-4.058,4.058S15.789,10.438,18.031,10.438L18.031,10.438z M18.031,10.438"/>
			<path fill="#991915" d="M18.031,11.358c-4.551,0-8.115,2.673-8.115,6.087v4.058c0,1.122,0.907,2.029,2.029,2.029h2.028v8.116
				c0,1.121,0.908,2.028,2.029,2.028h4.058c1.122,0,2.029-0.907,2.029-2.028v-8.116h2.028c1.122,0,2.029-0.908,2.029-2.029v-4.058
				C26.147,14.031,22.583,11.358,18.031,11.358L18.031,11.358z M18.031,11.358"/>
		</g>
		<g>
			<path fill="#991915" d="M27.384,10.438c2.243,0,4.059-1.814,4.059-4.058s-1.815-4.058-4.059-4.058
				c-2.242,0-4.058,1.814-4.058,4.058S25.142,10.438,27.384,10.438L27.384,10.438z M27.384,10.438"/>
			<path fill="#991915" d="M27.384,11.358c-1.362,0-2.636,0.239-3.752,0.667c1.915,1.189,3.115,2.992,3.115,5.046V22.3
				c0,1.204-0.975,2.179-2.179,2.179h-1.242v7.17c0,1.121,0.907,2.028,2.029,2.028h4.058c1.122,0,2.029-0.907,2.029-2.028v-8.116
				h2.028c1.122,0,2.029-0.908,2.029-2.029v-4.058C35.5,14.031,31.936,11.358,27.384,11.358z"/>
		</g>
		<g>
			<path fill="#991915" d="M8.616,10.438c2.242,0,4.058-1.814,4.058-4.058s-1.815-4.058-4.058-4.058
				c-2.243,0-4.058,1.814-4.058,4.058S6.373,10.438,8.616,10.438L8.616,10.438z M8.616,10.438"/>
			<path fill="#991915" d="M8.616,11.358c1.362,0,2.636,0.239,3.752,0.667c-1.915,1.189-3.115,2.992-3.115,5.046V22.3
				c0,1.204,0.975,2.179,2.179,2.179h1.242v7.17c0,1.121-0.907,2.028-2.029,2.028H6.587c-1.122,0-2.029-0.907-2.029-2.028v-8.116
				H2.529c-1.122,0-2.029-0.908-2.029-2.029v-4.058C0.5,14.031,4.065,11.358,8.616,11.358z"/>
		</g>
	</g>
</g>
</svg>
