<?xml version="1.0" encoding="utf-8"?>
<!-- Generator: Adobe Illustrator 16.0.0, SVG Export Plug-In . SVG Version: 6.00 Build 0)  -->
<!DOCTYPE svg PUBLIC "-//W3C//DTD SVG 1.1//EN" "http://www.w3.org/Graphics/SVG/1.1/DTD/svg11.dtd">
<svg version="1.1" xmlns="http://www.w3.org/2000/svg" xmlns:xlink="http://www.w3.org/1999/xlink" x="0px" y="0px" width="36px"
	 height="36px" viewBox="0 0 36 36" enable-background="new 0 0 36 36" xml:space="preserve">
<g id="Capa_1" display="none">
	<g display="inline">
		<path fill="#991915" d="M29.712,19.452c-0.084-0.042-0.169-0.063-0.253-0.063c-0.183,0-0.344,0.069-0.483,0.211l-1.348,1.346
			c-0.126,0.127-0.188,0.281-0.188,0.463v5.346c0,0.927-0.33,1.719-0.989,2.378c-0.66,0.66-1.453,0.989-2.379,0.989H6.561
			c-0.926,0-1.718-0.329-2.378-0.989c-0.66-0.659-0.989-1.451-0.989-2.378V9.244c0-0.926,0.329-1.719,0.989-2.378
			c0.66-0.66,1.452-0.99,2.378-0.99h17.511c0.309,0,0.624,0.044,0.947,0.128c0.084,0.027,0.147,0.041,0.189,0.041
			c0.183,0,0.344-0.07,0.484-0.21l1.03-1.031c0.169-0.169,0.232-0.372,0.188-0.61c-0.041-0.224-0.167-0.386-0.378-0.484
			c-0.758-0.35-1.578-0.525-2.462-0.525H6.561c-1.668,0-3.096,0.592-4.282,1.778C1.093,6.147,0.5,7.575,0.5,9.245v17.51
			c0,1.67,0.593,3.098,1.778,4.284c1.186,1.185,2.614,1.777,4.282,1.777h17.511c1.671,0,3.098-0.593,4.283-1.777
			c1.186-1.187,1.778-2.614,1.778-4.284v-6.692C30.133,19.767,29.992,19.563,29.712,19.452L29.712,19.452z M29.712,19.452"/>
		<path fill="#991915" d="M34.994,7.371L32.68,5.057c-0.337-0.337-0.738-0.506-1.2-0.506c-0.464,0-0.863,0.169-1.2,0.506
			L16.663,18.673l-5.535-5.535c-0.337-0.337-0.737-0.505-1.2-0.505s-0.863,0.168-1.2,0.505l-2.314,2.316
			c-0.336,0.336-0.505,0.735-0.505,1.199c0,0.463,0.169,0.862,0.505,1.199l9.049,9.05c0.338,0.337,0.738,0.505,1.201,0.505
			s0.863-0.168,1.199-0.505L34.994,9.771C35.331,9.435,35.5,9.035,35.5,8.572S35.331,7.707,34.994,7.371L34.994,7.371z
			 M34.994,7.371"/>
	</g>
</g>
<g id="Capa_2" display="none">
	<g display="inline">
		<path fill="#991915" d="M12.195,28.891h-6.51c-1.245,0-2.274-0.98-2.274-2.222V6.485c0-1.244,1.029-2.214,2.274-2.214h15.758
			c1.24,0,2.259,0.97,2.259,2.214v16.912l2.91-3.46V4.325c0-1.639-1.294-2.965-2.927-2.965H3.324C1.755,1.36,0.5,2.632,0.5,4.201
			v24.704c0,1.64,1.31,2.966,2.948,2.966h11.431L13.526,30.7C12.933,30.189,12.492,29.559,12.195,28.891L12.195,28.891z
			 M12.195,28.891"/>
		<path fill="#991915" d="M20.23,8.001H7.161c-0.803,0-1.45,0.652-1.45,1.456c0,0.803,0.646,1.453,1.45,1.453H20.23
			c0.803,0,1.444-0.65,1.444-1.453C21.68,8.653,21.027,8.001,20.23,8.001L20.23,8.001z M20.23,8.001"/>
		<path fill="#991915" d="M20.23,12.852H7.161c-0.803,0-1.45,0.646-1.45,1.449c0,0.803,0.646,1.455,1.45,1.455H20.23
			c0.803,0,1.444-0.652,1.444-1.455C21.68,13.503,21.027,12.852,20.23,12.852L20.23,12.852z M20.23,12.852"/>
		<path fill="#991915" d="M20.23,17.695H7.161c-0.803,0-1.45,0.62-1.45,1.423c0,0.799,0.646,1.413,1.45,1.413H20.23
			c0.803,0,1.444-0.614,1.444-1.413C21.68,18.315,21.027,17.695,20.23,17.695L20.23,17.695z M20.23,17.695"/>
		<path fill="#991915" d="M5.706,23.742c0,0.798,0.652,1.418,1.455,1.418h4.873c0.204-0.523,0.517-1.132,0.948-1.632
			c0.447-0.522,0.98-0.905,1.558-1.207H7.161C6.358,22.326,5.706,22.939,5.706,23.742L5.706,23.742z M5.706,23.742"/>
		<path fill="#991915" d="M20.23,22.326h-1.095c0.361,0.145,0.701,0.404,1.014,0.673l1.449,1.239
			c0.055-0.15,0.081-0.312,0.081-0.483C21.68,22.957,21.027,22.326,20.23,22.326L20.23,22.326z M20.23,22.326"/>
		<path fill="#991915" d="M34.604,18.434c-1.066-0.91-2.673-0.781-3.584,0.291l-8.348,9.787l-4.177-3.588
			c-1.067-0.912-2.667-0.788-3.583,0.275c-0.911,1.065-0.787,2.666,0.274,3.582l6.106,5.244c0.469,0.399,1.051,0.614,1.66,0.614
			c0.064,0,0.129,0,0.199-0.004c0.668-0.054,1.299-0.373,1.735-0.884l10.008-11.734C35.801,20.952,35.677,19.35,34.604,18.434
			L34.604,18.434z M34.604,18.434"/>
	</g>
</g>
<g id="Capa_3">
	<g>
		<path fill="#991915" d="M4.875,5.969V1.594c0-0.604,0.489-1.094,1.094-1.094s1.094,0.489,1.094,1.094v4.375
			c0,0.604-0.489,1.094-1.094,1.094S4.875,6.573,4.875,5.969L4.875,5.969z M23.469,7.063c0.604,0,1.094-0.489,1.094-1.094V1.594
			c0-0.604-0.489-1.094-1.094-1.094s-1.094,0.489-1.094,1.094v4.375C22.375,6.573,22.864,7.063,23.469,7.063L23.469,7.063z
			 M35.5,26.75c0,4.832-3.918,8.75-8.75,8.75S18,31.582,18,26.75S21.918,18,26.75,18S35.5,21.918,35.5,26.75L35.5,26.75z
			 M33.313,26.75c0-3.619-2.943-6.563-6.563-6.563s-6.563,2.943-6.563,6.563s2.943,6.563,6.563,6.563S33.313,30.369,33.313,26.75
			L33.313,26.75z M9.25,13.625H4.875V18H9.25V13.625z M4.875,24.563H9.25v-4.375H4.875V24.563z M11.438,18h4.375v-4.375h-4.375V18z
			 M11.438,24.563h4.375v-4.375h-4.375V24.563z M2.688,26.532V11.438H26.75v4.375h2.188V7.281c0-1.329-1.06-2.406-2.369-2.406
			h-0.912v1.094c0,1.205-0.98,2.188-2.188,2.188s-2.188-0.982-2.188-2.188V4.875H8.156v1.094c0,1.205-0.98,2.188-2.188,2.188
			S3.781,7.174,3.781,5.969V4.875H2.87c-1.31,0-2.37,1.077-2.37,2.406v19.251c0,1.324,1.061,2.405,2.37,2.405h12.942V26.75H2.87
			C2.771,26.75,2.688,26.647,2.688,26.532L2.688,26.532z M22.375,18v-4.375H18V18H22.375z M30.031,26.75H26.75v-3.281
			c0-0.604-0.489-1.094-1.094-1.094s-1.094,0.489-1.094,1.094v4.375c0,0.604,0.489,1.094,1.094,1.094h4.375
			c0.604,0,1.094-0.489,1.094-1.094S30.636,26.75,30.031,26.75L30.031,26.75z M30.031,26.75"/>
	</g>
</g>
</svg>
