<?xml version="1.0" encoding="utf-8"?>
<!-- Generator: Adobe Illustrator 16.0.0, SVG Export Plug-In . SVG Version: 6.00 Build 0)  -->
<!DOCTYPE svg PUBLIC "-//W3C//DTD SVG 1.1//EN" "http://www.w3.org/Graphics/SVG/1.1/DTD/svg11.dtd">
<svg version="1.1" id="Capa_1" xmlns="http://www.w3.org/2000/svg" xmlns:xlink="http://www.w3.org/1999/xlink" x="0px" y="0px"
	 width="36px" height="36px" viewBox="0 0 36 36" enable-background="new 0 0 36 36" xml:space="preserve">
<g>
	<path fill="#991915" d="M29.712,19.452c-0.084-0.042-0.169-0.063-0.253-0.063c-0.183,0-0.344,0.069-0.483,0.211l-1.348,1.346
		c-0.126,0.127-0.188,0.281-0.188,0.463v5.346c0,0.927-0.33,1.719-0.989,2.378c-0.66,0.66-1.453,0.989-2.379,0.989H6.561
		c-0.926,0-1.718-0.329-2.378-0.989c-0.66-0.659-0.989-1.451-0.989-2.378V9.244c0-0.926,0.329-1.719,0.989-2.378
		c0.66-0.66,1.452-0.99,2.378-0.99h17.511c0.309,0,0.624,0.044,0.947,0.128c0.084,0.027,0.147,0.041,0.189,0.041
		c0.183,0,0.344-0.07,0.484-0.21l1.03-1.031c0.169-0.169,0.232-0.372,0.188-0.61c-0.041-0.224-0.167-0.386-0.378-0.484
		c-0.758-0.35-1.578-0.525-2.462-0.525H6.561c-1.668,0-3.096,0.592-4.282,1.778C1.093,6.147,0.5,7.575,0.5,9.245v17.51
		c0,1.67,0.593,3.098,1.778,4.284c1.186,1.185,2.614,1.777,4.282,1.777h17.511c1.671,0,3.098-0.593,4.283-1.777
		c1.186-1.187,1.778-2.614,1.778-4.284v-6.692C30.133,19.767,29.992,19.563,29.712,19.452L29.712,19.452z M29.712,19.452"/>
	<path fill="#991915" d="M34.994,7.371L32.68,5.057c-0.337-0.337-0.738-0.506-1.2-0.506c-0.464,0-0.863,0.169-1.2,0.506
		L16.663,18.673l-5.535-5.535c-0.337-0.337-0.737-0.505-1.2-0.505s-0.863,0.168-1.2,0.505l-2.314,2.316
		c-0.336,0.336-0.505,0.735-0.505,1.199c0,0.463,0.169,0.862,0.505,1.199l9.049,9.05c0.338,0.337,0.738,0.505,1.201,0.505
		s0.863-0.168,1.199-0.505L34.994,9.771C35.331,9.435,35.5,9.035,35.5,8.572S35.331,7.707,34.994,7.371L34.994,7.371z M34.994,7.371
		"/>
</g>
</svg>
